<svg id="Capa_1" data-name="Capa 1" xmlns="http://www.w3.org/2000/svg" version="1.1" viewBox="0 0 22.5 22.5"> <defs> <style> .cls-1 { fill: #056175; stroke-width: 0px; } </style> </defs> <path class="cls-1" d="M11.2,0C5,0,0,5,0,11.2s5,11.2,11.2,11.2,11.2-5,11.2-11.2S17.4,0,11.2,0ZM11.2,2c5.1,0,9.2,4.1,9.2,9.2s-.6,3.8-1.6,5.2c-2.1-1.9-4.8-2.9-7.6-2.9s-5.5,1.1-7.6,3c-1-1.5-1.7-3.3-1.7-5.3C2,6.1,6.1,2,11.2,2ZM5,18c1.7-1.6,3.9-2.5,6.3-2.5s4.6.9,6.3,2.5c-1.6,1.5-3.8,2.5-6.3,2.5s-4.6-.9-6.3-2.5Z"/> <path class="cls-1" d="M11.2,12.2c2.4,0,4.3-1.9,4.3-4.3s-1.9-4.3-4.3-4.3-4.3,1.9-4.3,4.3,1.9,4.3,4.3,4.3ZM11.2,5.7c1.3,0,2.3,1,2.3,2.3s-1,2.3-2.3,2.3-2.3-1-2.3-2.3,1-2.3,2.3-2.3Z"/></svg>